<svg width="115" height="110" viewBox="0 0 115 110" fill="none" xmlns="http://www.w3.org/2000/svg">
<path fill-rule="evenodd" clip-rule="evenodd" d="M11 74.81L19.89 74.62L20.89 43.31L15 36.57L38.7 36.78L34.62 43.31L37.52 74.25L48.52 74.02L50.38 43.31L44.82 36.83L69.03 37.04L64.16 43.31L66.7 73.63L79.01 73.37L79.92 43.31L74.59 37.09L98 37.3L93.7 43.3L96.32 73L104.53 72.83V85.62L12.98 86.62L11 74.81ZM11 32.48L10 26.58L55.3 0L103.53 24.61L102.53 31.5L11 32.48ZM55.7 11.81C47.49 11.81 46.79 24.61 56.28 24.61C64.31 24.61 64.1 11.81 55.7 11.81Z" fill="#DC5990"/>
</svg>
