<svg width="121" height="110" viewBox="0 0 121 110" fill="none" xmlns="http://www.w3.org/2000/svg">
<path fill-rule="evenodd" clip-rule="evenodd" d="M63.47 74.69L10.53 75.27C10.53 75.27 10 13.27 10 8.6C10 3.93 11.12 0.389999 17.87 0.389999C24.62 0.389999 59.97 0 64.71 0C70.55 0 71.48 4.06 71.51 8.56C71.51 11.4 71.58 22.26 71.58 22.26L67.23 22.44V30.24L71.5 30.58L77.8 27.3L84.51 29.82L90.76 26.82L96.3 26.22C96.3 26.22 99.36 55.64 110.86 82.01L68.71 87.51C66.662 83.3661 64.9109 79.082 63.47 74.69ZM22.73 68.49L61.31 68.6V67.69C57.9734 55.5958 55.4709 43.2869 53.82 30.85L58.82 29.59L60.95 29.75L60.89 22.45L22.13 22.25L22.73 68.49ZM57.99 6.3C56.9652 6.26987 55.9574 6.56661 55.1124 7.14729C54.2674 7.72798 53.6292 8.56247 53.29 9.53L38.99 9.18C38.6035 8.29598 37.9601 7.54862 37.1433 7.03503C36.3265 6.52143 35.3742 6.26534 34.41 6.3C27.85 6.3 27.29 16.82 34.87 16.82C35.8411 16.85 36.795 16.5585 37.5834 15.9907C38.3718 15.4229 38.9507 14.6106 39.23 13.68L53.23 13.34C53.5906 14.4231 54.3035 15.3543 55.2551 15.9851C56.2066 16.6158 57.3419 16.9097 58.48 16.82C64.84 16.82 64.67 6.3 57.99 6.3ZM103.89 77.77C93.48 57.29 91.79 31.77 91.79 31.77L85.07 35.48L76.94 33.61L71.1 36.36L59.91 35.33C59.91 35.33 62.75 59.84 72.6 81.85C72.72 82.13 103.89 77.77 103.89 77.77ZM76.06 41.44C84.48 39.92 89.24 47.82 84.2 54.19C85.7797 54.4138 87.2538 55.1136 88.4257 56.1962C89.5977 57.2789 90.4119 58.6929 90.76 60.25C92.06 67.46 85.48 72.4 75.69 74.16L74.55 68.49C79.55 67.4 84.42 65.18 83.81 61.77C83.42 59.57 80.13 57.77 76.51 59.28L74.23 53.94L80.48 50.8C81 45.36 74.78 47.1 72.22 49.24L69.07 45.79C70.09 43.85 73.31 41.93 76.06 41.44ZM35.35 60.81L35.23 55C40.39 54.82 45.54 53.49 45.54 50C45.54 47.77 42.62 45.39 38.79 46.26L37.48 40.6L44.19 38.6C45.66 33.33 39.19 33.95 36.33 35.6L33.84 31.6C35.2 29.87 38.7 28.6 41.49 28.6C50.06 28.6 53.34 37.21 47.26 42.6C48.7763 43.1003 50.1042 44.0506 51.0671 45.3243C52.03 46.598 52.5821 48.1347 52.65 49.73C52.64 57.11 45.29 60.81 35.35 60.81Z" fill="#DC5990"/>
</svg>
