<svg width="108" height="110" viewBox="0 0 108 110" fill="none" xmlns="http://www.w3.org/2000/svg">
<path fill-rule="evenodd" clip-rule="evenodd" d="M55.2288 87.92C-6.30123 87.92 -3.51123 0 54.2288 0C111.789 0 111.429 87.92 55.2288 87.92ZM54.1688 6.27C4.63877 6.27 2.25877 81.66 55.0088 81.66C103.199 81.63 103.509 6.27 54.1688 6.27ZM85.8588 48.42L75.1388 50.42L74.1388 42.72H85.8488L85.8588 48.42ZM50.3888 53.1L36.2388 38.01L39.2388 34.37L53.6088 42.2L78.4788 22.63L80.5988 25.45L56.9788 52.34L50.3888 53.1ZM53.8788 13.7L60.3688 13.18L60.8488 25.18L54.2188 24.86L53.8788 13.7ZM46.1188 13.7H50.2188L51.2188 25.23L45.1388 24.23L46.1188 13.7ZM21.6988 44.69L33.2388 42.69L34.2388 50.52H22.6988L21.6988 44.69ZM58.5388 75.21L52.7188 76.83L50.7188 65.43L58.5288 64.8L58.5388 75.21Z" fill="#DC5990"/>
</svg>
