<svg width="105" height="110" viewBox="0 0 105 110" fill="none" xmlns="http://www.w3.org/2000/svg">
<path fill-rule="evenodd" clip-rule="evenodd" d="M68.07 83.46C57.75 83.46 43.07 82.94 33.28 82.94C14.97 82.94 10 72.11 10 58.34C10 44.57 10.27 29.34 10.27 24.12C10.27 8.65 17.12 0.0600014 34.1 0.0600014C40.38 0.0600014 64 0 72.04 0C87.49 0 94.9 6.38 94.9 25.06C94.9 29.67 94.56 38.3 94.56 62.23C94.56 77.28 87.45 83.46 68.07 83.46ZM52.57 19.91C23.75 19.91 22.36 63.77 53.06 63.77C81.1 63.77 81.28 19.91 52.57 19.91ZM78.62 11.22C70.29 11.22 69.89 23.83 78.77 23.83C86.87 23.81 86.93 11.22 78.62 11.22Z" fill="#DC5990"/>
</svg>
