<svg width="67" height="110" viewBox="0 0 67 110" fill="none" xmlns="http://www.w3.org/2000/svg">
<path fill-rule="evenodd" clip-rule="evenodd" d="M56.6397 75.416C56.8197 81.086 52.7597 83.856 45.4897 83.966C38.2197 84.076 26.9697 83.696 20.0397 83.806C13.1097 83.916 10.2897 79.986 10.1497 74.386C9.7197 56.666 10.3497 13.386 10.3797 9.69602C10.3797 3.34602 12.8997 0.296016 18.3797 0.206016C22.7997 0.136016 42.1697 -0.0339849 47.8397 0.00601506C54.2997 0.00601506 56.5997 4.25602 56.6897 10.126C56.7497 13.376 56.1097 58.316 56.6397 75.416ZM33.8097 79.546C39.3997 79.456 39.1097 70.546 33.2697 70.616C27.4297 70.686 27.1897 79.646 33.8097 79.546ZM16.3497 17.166L16.5897 66.106L49.6997 66.016L51.0297 16.866L16.3497 17.166Z" fill="#DC5990"/>
</svg>
