<svg width="109" height="110" viewBox="0 0 109 110" fill="none" xmlns="http://www.w3.org/2000/svg">
<path fill-rule="evenodd" clip-rule="evenodd" d="M83.91 47.803L84.51 48.003C90.65 58.003 82.51 87.003 74.78 94.263L46.4 93.833L27.81 102.833L10 69.563L29.53 59.353L36.38 41.563L46.38 40.563L29.28 10.983C36.02 0.573023 70.88 -2.75698 81.75 2.37302L79.47 15.783C87.64 18.083 95.17 22.373 98.34 26.603L83.91 47.803ZM41.35 47.803L34.02 64.583L28.17 68.183L38.73 89.393L43.96 87.853H70.54C75.62 81.463 80.9 64.853 78.33 53.983L50.26 58.623L47.95 47.413L41.35 47.803ZM64.45 7.27302C58.4333 7.30798 52.4394 8.01571 46.58 9.38302C49.75 13.383 49.58 20.783 45.14 25.583L52.71 38.973L55.46 50.813L59.39 50.033L56.17 17.083C59.4277 15.063 63.1973 14.0216 67.03 14.083C65.5706 12.1028 64.6786 9.76226 64.45 7.31302V7.27302ZM71.53 20.893C71.78 24.893 68.82 29.613 64.12 31.203L64.59 41.083C68.59 35.803 76.84 37.483 79.5 44.283L85.24 35.473C81.6 33.473 79.29 28.043 80.85 22.883C77.8471 21.8099 74.7112 21.1538 71.53 20.933V20.893Z" fill="#DC5990"/>
</svg>
